<svg xmlns="http://www.w3.org/2000/svg" xmlns:xlink="http://www.w3.org/1999/xlink" xmlns:lucid="lucid" width="2240.22" height="514.05"><g transform="translate(-86.61310175767267 -418.10335708601383)" lucid:page-tab-id="0_0"><path d="M357.86 867.48l-11.28-21.67s-.5-.96-1.84-1.18l-47.6-6.93s-.36-.12-.85 0l-47.48 6.92c-.73.1-1.47.54-1.84 1.2l-11.28 21.66c-.98 2.06 1.35 3.25 2.33 3.14h8.7v27.2c0 1.07.87 2.05 2.1 2.15l47.58 6.94h.75l47.6-6.93c1.2-.1 2.07-1.08 2.07-2.16v-27.18h8.7c.87 0 1.73-.33 2.22-.98.5-.65.5-1.5.12-2.16zm-115.78-1.3l8.95-17.33 26-3.8 15.95-2.27-9.32 23.4h-41.58zm52.12 35.85l-42.3-6.17v-25.24h33.6c1.1 0 2.08-.54 2.45-1.52l6.25-15.92v48.85zm47.47-6.17l-42.32 6.17v-48.85l6.26 15.92c.38.98 1.36 1.52 2.46 1.52h33.6v25.24zm-31.77-29.68l-9.32-23.4 16.68 2.38 25.27 3.7 9.07 17.32h-41.7zM317.02 816.9h-11.78v-18.32h-16.92v18.3h-11.78l20.24 17.78 20.24-17.77zm-23.68 4.54v-18.3h6.87v18.3h4.43l-7.85 6.82-7.85-6.82h4.4z" stroke="#000" stroke-opacity="0" stroke-width=".31" fill="#d85656"/><path d="M970.65 856.48L952 837.92c-1.46-1.36-3.42-2.2-5.4-2.2h-19.73c-3.44 0-6 2.62-6 5.43v29.62h-20l-7.73-16.7-.37-.6L913 827.9c3.2-.72 5.9-2.8 7.24-5.52l20.36-1.88c.25 0 .37-.1.62-.1 2.33 2.4 5.76 3.96 9.7 3.96 2.8 0 5.63-.73 7.7-2.3.87-.62 1.12-1.97.5-2.7-.73-.73-2.2-.94-3.06-.42-1.47 1.04-3.2 1.56-5.15 1.56-4.04 0-7.47-2.6-8.33-6.04v-3.34c.86-3.44 4.3-6.05 8.34-6.05 1.97 0 3.7.63 5.16 1.57.86.52 2.33.4 3.06-.42.62-.73.37-2.1-.5-2.7-2.07-1.58-4.9-2.3-7.7-2.3-3.82 0-7.37 1.56-9.7 3.96-.5-.2-.98-.2-1.47-.1l-23.3 5.52c-1.73-1.05-3.8-1.67-6.14-1.67-6 0-10.66 4.27-10.66 9.7v.1l-25.27 31.5c-1.35 1.04-2.45 2.4-3.2 3.85l-7.6 16.7h-13.6v18.44c0 2.6 2.33 4.7 5.15 4.7h1.47c.97 6.57 7.22 11.57 14.83 11.57 7.6 0 13.86-5 14.84-11.58h45.5c.98 6.57 7.24 11.57 14.84 11.57 7.62 0 13.87-5 14.85-11.58h5.77c2.82 0 5.15-2.1 5.4-4.7v-28.35c0-1.68-.62-3.24-1.97-4.4zm-3.43 2.7h-31.28V839.8h10.67c.87 0 1.5.2 2.22.83l18.4 18.56zm-28.95-48.48c-.12.73-.24 1.36-.24 2.1 0 .72.12 1.45.24 2.07v1.98l-17.17 1.57v-.1c-.12-1.67-.6-3.24-1.47-4.6l18.64-4.17v1.15zm-27.96 2.1c3.44 0 6.5 2.5 6.5 5.83 0 3.23-2.8 5.73-6.5 5.73h-.36c-3.43-.1-6-2.6-6-5.73 0-3.34 2.7-5.84 6.37-5.84zm-28.8 34.7l19.37-24.08c1.34 2.1 3.67 3.65 6.25 4.5L889.7 850c-1.96-1.46-4.4-2.3-7-2.4-.1-.1-.36-.1-.48-.1h-.73zm-6.15 8.15c.37-.94.86-1.67 1.6-2.3.12-.1.24-.1.24-.2.48-.42.97-.74 1.6-1.05h.1s.13 0 .13-.1c.74-.32 1.72-.53 2.58-.53.25 0 .38-.1.62-.1.12 0 .25.1.37.1 1.95.1 3.67.94 5.14 2.1.5.62.98 1.35 1.35 2.08l7.1 15.12h-27.96l7.1-15.12zm-3.92 45.98c-6 0-10.67-4.27-10.67-9.7 0-5.3 4.66-9.6 10.67-9.6 6 0 10.8 4.3 10.8 9.6 0 5.43-4.8 9.7-10.8 9.7zm75.18 0c-6 0-10.66-4.27-10.66-9.7 0-5.3 4.66-9.6 10.67-9.6 6.02 0 10.8 4.3 10.8 9.6 0 5.43-4.78 9.7-10.8 9.7zm20.62-11.57h-5.77c-.98-6.57-7.23-11.58-14.84-11.58h-.1-.13c-7.48 0-13.74 5-14.84 11.58h-45.26c-.86-6.15-6.38-10.95-13.37-11.58h-2.83c-7 .63-12.5 5.43-13.5 11.58h-1.46c-.37 0-.86-.42-.86-.84v-14.6H925.15v-33.26c0-.94.86-1.56 1.72-1.56h4.66v19.9c0 1.8 1.84 3.35 3.68 3.35h32.88v5.74H957.4c-1.34 0-2.2.82-2.2 1.97 0 1.14.86 1.87 2.2 1.87h10.68v16.58c0 .42-.37.84-.86.84z" stroke="#000" stroke-opacity="0" stroke-width=".29" fill="#ff741d"/><path d="M871.43 888.08c-2.33 0-4.3 1.77-4.3 3.85 0 2.2 1.97 3.86 4.3 3.86s4.3-1.68 4.3-3.87c0-2.08-1.97-3.85-4.3-3.85zM946.6 888.08c-2.32 0-4.28 1.77-4.28 3.85 0 2.2 1.96 3.86 4.3 3.86 2.32 0 4.3-1.68 4.3-3.87 0-2.08-1.98-3.85-4.3-3.85zM882.22 857.2c-1.35 0-2.2.74-2.2 2 0 1.14.85 1.87 2.2 1.87 1.23 0 2.1-.73 2.1-1.88 0-1.26-.87-2-2.1-2z" stroke="#000" stroke-opacity="0" stroke-width=".29" fill="#ff741d"/><path d="M1279.56 456.2h-90.52v-4.5c0-1.4-1.38-2.65-3.02-2.65h-14.35c-1.64 0-3.02 1.24-3.02 2.64v4.5h-8.94c-1.63 0-3 1.13-3 2.63v75.68c0 1.42 1.37 2.66 3 2.66h119.86c1.64 0 3.02-1.24 3.02-2.65v-75.67c0-1.5-1.38-2.64-3.02-2.64zm-104.87-1.86h8.42v1.85h-8.43v-1.86zm101.84 77.53h-113.8v-70.4h113.8v70.4z" stroke="#000" stroke-opacity="0" stroke-width=".48" fill="#4247a8"/><path d="M1219.63 518.3c14.48 0 26.2-10.4 26.2-23.26 0-12.77-11.72-23.26-26.2-23.26-14.47 0-26.18 10.5-26.18 23.26 0 12.86 11.7 23.26 26.18 23.26zm0-41.14c11.08 0 20.15 8 20.15 17.88 0 9.87-9.07 17.97-20.15 17.97-11.08 0-20.14-8.1-20.14-17.96 0-9.87 9.05-17.88 20.13-17.88z" stroke="#000" stroke-opacity="0" stroke-width=".48" fill="#4247a8"/><path d="M1219.63 509.4c8.94 0 16.24-6.43 16.24-14.36s-7.3-14.36-16.24-14.36c-8.94 0-16.24 6.43-16.24 14.36s7.3 14.36 16.23 14.36zm0-23.43c5.67 0 10.2 4.05 10.2 9.07 0 5.02-4.53 9.08-10.2 9.08-5.66 0-10.2-4.06-10.2-9.08 0-5.02 4.54-9.07 10.2-9.07zM1254.76 483.5h12.84c1.64 0 3.02-1.15 3.02-2.64V469.5c0-1.5-1.38-2.65-3.02-2.65h-12.84c-1.64 0-2.9 1.14-2.9 2.64v11.36c0 1.5 1.26 2.64 2.9 2.64zm3.02-11.37h6.8v6.08h-6.8v-6.07zM1172.04 519h11.6c1.62 0 3-1.14 3-2.64 0-1.5-1.38-2.64-3-2.64h-11.6c-1.63 0-3.02 1.14-3.02 2.64 0 1.5 1.4 2.65 3.02 2.65zM1172.04 526.5h11.6c1.62 0 3-1.24 3-2.65 0-1.5-1.38-2.64-3-2.64h-11.6c-1.63 0-3.02 1.15-3.02 2.65 0 1.4 1.4 2.64 3.02 2.64z" stroke="#000" stroke-opacity="0" stroke-width=".48" fill="#4247a8"/><path d="M2196.9 816.13l-54.2-23.9c-.58-.1-1.15-.1-1.6 0l-54.57 24.02c-1.03.36-2.17 2.04-1.25 3.96v67.1c0 1.2.57 2.17 1.6 2.65l53.64 21.73c.34.12.57.36 1.14.48.8.12 1.26-.12 1.26-.12l54.56-22.1c.9-.47 1.6-1.43 1.6-2.63v-68.4c0-1.33-1.37-2.4-2.17-2.77zm-7.18 2.76l-47.7 20.88-14.28-6.25 45.3-21.96 16.68 7.32zm-23.17-10.2l-47.72 23.03-1.14 13.33-8.9-4.2V828.5l49.53-23.4 8.22 3.6zm-24.66-10.82l9.8 4.33-45.76 21.73-11.76-5.16 47.7-20.9zm-51.94 25.1l14.15 6.23v15.5l17.7 8.28 1.37-15.48 16.67 7.32v60.6l-49.88-20.15v-62.3zm104.32 62.3l-49.76 20.15V844.7l49.76-21.85v62.42z" stroke="#000" stroke-opacity="0" stroke-width=".31" fill="#7ab648"/><path d="M1561.34 895.24h-69.86c-4.17 0-7.57-3.4-7.57-7.56v-69.9c0-4.08 3.4-7.48 7.58-7.48h69.86c4.16 0 7.56 3.4 7.56 7.47v69.9c0 4.17-3.4 7.57-7.56 7.57zm-69.86-80.1h-.1c-1.43 0-2.7 1.2-2.7 2.63v69.9c0 1.54 1.27 2.73 2.8 2.73h69.86c1.53 0 2.8-1.2 2.8-2.72v-69.9c-.08-1.45-1.27-2.72-2.8-2.64z" stroke="#fff" stroke-opacity="0" fill="#ffaf28"/><path d="M1498.68 800h4.8v12.65h-4.8V800zM1511.36 800h4.8v12.65h-4.8V800zM1524 800h4.8v12.65h-4.8V800zM1536.66 800h4.8v12.65h-4.8V800zM1549.34 800h4.8v12.65h-4.8V800zM1498.68 892.84h4.8v12.65h-4.8v-12.66zM1511.36 892.84h4.8v12.65h-4.8v-12.66zM1524 892.84h4.8v12.65h-4.8v-12.66zM1536.66 892.84h4.8v12.65h-4.8v-12.66zM1549.34 892.84h4.8v12.65h-4.8v-12.66zM1473.66 825.02h12.66v4.8h-12.66v-4.8zM1473.66 837.7h12.66v4.8h-12.66v-4.8zM1473.66 850.34h12.66v4.8h-12.66v-4.8zM1473.66 863h12.66v4.8h-12.66V863zM1473.66 875.67h12.66v4.8h-12.66v-4.8zM1566.5 825.02h12.65v4.8h-12.65v-4.8zM1566.5 837.7h12.65v4.8h-12.65v-4.8zM1566.5 850.34h12.65v4.8h-12.65v-4.8zM1566.5 863h12.65v4.8h-12.65V863zM1566.5 875.67h12.65v4.8h-12.65v-4.8zM1529.24 874.9c-10.6 0-19.2-8.6-19.2-19.2s8.6-19.2 19.2-19.2 19.2 8.6 19.2 19.2-8.6 19.2-19.2 19.2zm0-33.6c-7.95 0-14.4 6.45-14.4 14.4s6.45 14.4 14.4 14.4 14.4-6.45 14.4-14.4c-.03-7.9-6.5-14.33-14.4-14.3z" stroke="#fff" stroke-opacity="0" fill="#ffaf28"/><path d="M1529.24 868.18c-6.88 0-12.46-5.58-12.46-12.46 0-6.88 5.58-12.46 12.46-12.46 6.88 0 12.46 5.58 12.46 12.46v.03c-.02 6.88-5.58 12.43-12.46 12.43zm0-20.08c-4.23 0-7.65 3.4-7.65 7.65 0 4.23 3.4 7.65 7.64 7.65s7.65-3.42 7.65-7.65c0-4.24-3.42-7.65-7.66-7.65zM1509.6 838.34h-8.52c-1.32 0-2.4-1.08-2.4-2.4v-3.82c-.22-2.52 1.65-4.77 4.18-5h4.8c2.53.13 4.48 2.28 4.36 4.8v4.02c0 1.32-1.1 2.4-2.42 2.4zm-6.05-4.8h3.65v-1.34-.2h-3.6v.2zM1508.2 846.4h-5.8c-.7.03-1.28-.5-1.32-1.2v-1.8c.04-.7.63-1.22 1.32-1.2h5.8c.7-.02 1.3.5 1.33 1.2v1.8c-.04.7-.62 1.23-1.32 1.2z" stroke="#fff" stroke-opacity="0" fill="#ffaf28"/><path d="M1554.12 880.47h-55.47c-3.54 0-6.33-2.82-6.33-6.32v-34.38c.07-3.44 2.86-6.2 6.33-6.2h17.45l.68-3.45c.4-2 2.18-5.1 5.04-5.1h15.13c2.93 0 4.63 3.1 5.04 5.1l.74 3.44h11.38c3.54 0 6.33 2.83 6.33 6.32v34.27c0 3.5-2.8 6.32-6.33 6.32zm-55.47-42.14c-.88 0-1.56.66-1.56 1.55v34.27c0 .83.67 1.5 1.55 1.5h55.47c.88 0 1.56-.67 1.56-1.5v-34.38c0-.83-.68-1.5-1.56-1.5h-13.3c-1.15 0-2.17-.78-2.38-1.94l-1.15-5.2c-.15-.46-.3-.85-.63-1.3h-14.44c-.27.4-.48.8-.6 1.3l-1.1 5.26c-.28 1.1-1.23 1.93-2.46 1.87z" stroke="#fff" stroke-opacity="0" fill="#ffaf28"/><path d="M127.6 649.37c0-4.42 3.6-8 8-8h300.62c4.4 0 8 3.58 8 8v48.4c0 4.4-3.6 8-8 8h-300.6c-4.42 0-8-3.6-8-8z" stroke="#000" stroke-opacity="0" fill="#d85656"/><use xlink:href="#a" transform="matrix(1,0,0,1,132.61364345203242,646.3659082770196) translate(110.95555555555556 33.544444444444444)"/><path d="M135.4 646.35c15.92 0 28.82 12.18 28.82 27.22 0 15.03-12.9 27.22-28.8 27.22s-28.8-12.2-28.8-27.23c0-15.04 12.9-27.22 28.8-27.22z" stroke="#d85656" stroke-width="10" fill="#fff"/><use xlink:href="#b" transform="matrix(1,0,0,1,106.61310175767267,646.3463886097974) translate(22.82716049382716 31.944444444444443)"/><path d="M437.2 649.37c0-4.42 3.57-8 8-8h300.6c4.4 0 8 3.58 8 8v48.4c0 4.4-3.6 8-8 8H445.2c-4.43 0-8-3.6-8-8z" stroke="#000" stroke-opacity="0" fill="#225798"/><use xlink:href="#c" transform="matrix(1,0,0,1,442.19064450832957,646.3659082770196) translate(51.171604938271614 33.544444444444444)"/><use xlink:href="#d" transform="matrix(1,0,0,1,442.19064450832957,646.3659082770196) translate(170.73950617283953 33.544444444444444)"/><path d="M445 646.35c15.9 0 28.8 12.18 28.8 27.22 0 15.03-12.9 27.22-28.8 27.22s-28.8-12.2-28.8-27.23c0-15.04 12.9-27.22 28.8-27.22z" stroke="#225798" stroke-width="10" fill="#fff"/><use xlink:href="#e" transform="matrix(1,0,0,1,416.1901028139698,646.3463886097973) translate(22.82716049382716 31.944444444444443)"/><path d="M748.35 650.7c0-4.42 3.58-8 8-8h300.6c4.42 0 8 3.58 8 8v45.73c0 4.42-3.58 8-8 8h-300.6c-4.42 0-8-3.58-8-8z" stroke="#000" stroke-opacity="0" fill="#ff741d"/><use xlink:href="#f" transform="matrix(1,0,0,1,753.3497174044062,647.6992416103525) translate(59.196296296296325 32.044444444444444)"/><path d="M756.15 646.35c15.9 0 28.8 12.18 28.8 27.22 0 15.03-12.9 27.22-28.8 27.22s-28.8-12.2-28.8-27.23c0-15.04 12.9-27.22 28.8-27.22z" stroke="#ff741d" stroke-width="10" fill="#fff"/><use xlink:href="#g" transform="matrix(1,0,0,1,727.3491757100464,646.3463886097969) translate(22.82716049382716 31.944444444444443)"/><path d="M1061.1 650.7c0-4.42 3.57-8 8-8h300.6c4.4 0 8 3.58 8 8v45.73c0 4.42-3.6 8-8 8h-300.6c-4.43 0-8-3.58-8-8z" stroke="#000" stroke-opacity="0" fill="#4247a8"/><use xlink:href="#h" transform="matrix(1,0,0,1,1066.0908621402623,647.6992416103529) translate(93.76419753086421 32.044444444444444)"/><path d="M1068.9 646.35c15.9 0 28.8 12.18 28.8 27.22 0 15.03-12.9 27.22-28.8 27.22s-28.8-12.2-28.8-27.23c0-15.04 12.9-27.22 28.8-27.22z" stroke="#4247a8" stroke-width="10" fill="#fff"/><use xlink:href="#i" transform="matrix(1,0,0,1,1040.090320445902,646.3463886097973) translate(22.82716049382716 31.944444444444443)"/><path d="M1366.4 650.7c0-4.42 3.6-8 8-8h295.2c4.42 0 8 3.58 8 8v45.73c0 4.42-3.58 8-8 8h-295.2c-4.4 0-8-3.58-8-8z" stroke="#000" stroke-opacity="0" fill="#ffaf28"/><use xlink:href="#j" transform="matrix(1,0,0,1,1371.4138982360398,647.6992416103529) translate(102.86913580246915 32.044444444444444)"/><path d="M1374.2 646.35c15.92 0 28.82 12.18 28.82 27.22 0 15.03-12.9 27.22-28.8 27.22s-28.8-12.2-28.8-27.23c0-15.04 12.9-27.22 28.8-27.22z" stroke="#ffaf28" stroke-width="10" fill="#fff"/><use xlink:href="#k" transform="matrix(1,0,0,1,1345.4133565416798,646.3463886097973) translate(22.82716049382716 31.944444444444443)"/><path d="M1661 650.7c0-4.42 3.58-8 8-8h300.6c4.42 0 8 3.58 8 8v45.73c0 4.42-3.58 8-8 8H1669c-4.42 0-8-3.58-8-8z" stroke="#000" stroke-opacity="0" fill="#c92d39"/><use xlink:href="#l" transform="matrix(1,0,0,1,1666.00054169436,647.6992416103529) translate(106.04814814814816 32.044444444444444)"/><path d="M1668.8 646.35c15.9 0 28.8 12.18 28.8 27.22 0 15.03-12.9 27.22-28.8 27.22s-28.8-12.2-28.8-27.23c0-15.04 12.9-27.22 28.8-27.22z" stroke="#c92d39" stroke-width="10" fill="#fff"/><use xlink:href="#m" transform="matrix(1,0,0,1,1639.9999999999998,646.3463886097973) translate(22.82716049382716 31.944444444444443)"/><path d="M1988.1 638.7V602c0-6.63-5.36-12-12-12H457.66c-6.63 0-12 5.37-12 12v8.16" stroke="#a9afb8" stroke-width="8" fill="none"/><path d="M1992.1 642.95l-3.1-.27h-.7l-4.2.4v-4.48h8" fill="#a9afb8"/><path d="M445.65 628.42L441 614.16h9.3z" stroke="#a9afb8" stroke-width="8" fill="#a9afb8"/><path d="M445 709.8V748c0 6.63 5.36 12 12 12h1518.4c6.62 0 12-5.37 12-12v-9.77" stroke="#a9afb8" stroke-width="8" fill="none"/><path d="M449 709.9h-8v-4.44l3.8.33.7-.02 3.5-.33" fill="#a9afb8"/><path d="M1987.4 719.96l4.63 14.27h-9.27z" stroke="#a9afb8" stroke-width="8" fill="#a9afb8"/><path d="M1990.23 652.03c0-4.42 3.58-8 8-8h300.6c4.42 0 8 3.58 8 8v45.74c0 4.4-3.58 8-8 8h-300.6c-4.42 0-8-3.6-8-8z" stroke="#000" stroke-opacity="0" fill="#7ab648"/><use xlink:href="#n" transform="matrix(1,0,0,1,1995.2277397177552,649.0325749436862) translate(67.25185185185185 32.044444444444444)"/><use xlink:href="#o" transform="matrix(1,0,0,1,1995.2277397177552,649.0325749436862) translate(155.95555555555555 32.044444444444444)"/><path d="M1988.8 647.68c15.9 0 28.8 12.2 28.8 27.22 0 15.03-12.9 27.22-28.8 27.22s-28.8-12.2-28.8-27.22c0-15.03 12.9-27.22 28.8-27.22z" stroke="#7ab648" stroke-width="10" fill="#fff"/><use xlink:href="#p" transform="matrix(1,0,0,1,1960,647.6797219431313) translate(22.82716049382716 31.944444444444443)"/><path d="M626.34 535.9H556c-4.18 0-7.6-3.43-7.6-7.63V457.9c0-4.1 3.42-7.53 7.6-7.53h70.34c4.2 0 7.62 3.42 7.62 7.52v70.37c0 4.2-3.43 7.62-7.62 7.62zM556 455.23h-.08c-1.45 0-2.74 1.2-2.74 2.65v70.37c0 1.54 1.3 2.74 2.83 2.74h70.34c1.54 0 2.83-1.2 2.83-2.73V457.9c-.1-1.46-1.3-2.74-2.83-2.66z" stroke="#fff" stroke-opacity="0" fill="#225798"/><path d="M563.26 440h4.83v12.74h-4.84V440zM576.02 440h4.83v12.74h-4.83V440zM588.76 440h4.83v12.74h-4.84V440zM601.5 440h4.83v12.74h-4.83V440zM614.26 440h4.83v12.74h-4.84V440zM563.26 533.47h4.83v12.74h-4.84v-12.73zM576.02 533.47h4.83v12.74h-4.83v-12.73zM588.76 533.47h4.83v12.74h-4.84v-12.73zM601.5 533.47h4.83v12.74h-4.83v-12.73zM614.26 533.47h4.83v12.74h-4.84v-12.73zM538.07 465.2h12.74V470h-12.73v-4.83zM538.07 477.95h12.74v4.83h-12.73v-4.83zM538.07 490.7h12.74v4.82h-12.73v-4.83zM538.07 503.42h12.74v4.84h-12.73v-4.84zM538.07 516.2h12.74V521h-12.73v-4.83zM631.54 465.2h12.74V470h-12.74v-4.83zM631.54 477.95h12.74v4.83h-12.74v-4.83zM631.54 490.7h12.74v4.82h-12.74v-4.83zM631.54 503.42h12.74v4.84h-12.74v-4.84zM631.54 516.2h12.74V521h-12.74v-4.83zM609.48 506.13h-30.9c-1.7.04-3.16-1-3.7-2.62l-7.9-25.07c-.3-1.1-.15-2.24.56-3.18.76-1 1.9-1.52 3.15-1.48h46.66c1.3 0 2.4.55 3.16 1.58.7.94.87 2.04.54 3.14l-7.9 25c-.53 1.63-2 2.67-3.68 2.63zm-30.25-4.82h29.6l7.23-22.78H572.1z" stroke="#fff" stroke-opacity="0" fill="#225798"/><path d="M567.6 476.72l-1.76-6.84-7.25-2.06 1.32-4.66 7.25 2.06c1.6.24 2.83 1.34 3.27 2.9l1.88 7.27zM579.5 524.2c-4.28.03-7.74-3.42-7.76-7.7 0-4.28 3.44-7.74 7.7-7.76 4.3 0 7.76 3.44 7.77 7.7v.04c0 4.27-3.44 7.72-7.7 7.73zm0-10.63h-.02c-1.6 0-2.9 1.3-2.9 2.9 0 1.62 1.3 2.9 2.9 2.9 1.6 0 2.9-1.28 2.9-2.9 0-1.6-1.28-2.9-2.87-2.9z" stroke="#fff" stroke-opacity="0" fill="#225798"/><path d="M584.8 514.06h19.26v4.83H584.8v-4.84z" stroke="#fff" stroke-opacity="0" fill="#225798"/><path d="M609.23 524.2c-4.27 0-7.73-3.45-7.73-7.72s3.46-7.74 7.73-7.74c4.27 0 7.74 3.47 7.74 7.74-.02 4.27-3.47 7.72-7.74 7.73zm0-10.62c-1.6 0-2.9 1.3-2.9 2.9 0 1.6 1.3 2.9 2.9 2.9 1.6 0 2.9-1.3 2.9-2.9 0-1.6-1.3-2.9-2.9-2.9z" stroke="#fff" stroke-opacity="0" fill="#225798"/><path d="M578.93 510.17l3.75-7.7 4.34 2.13-3.74 7.7-4.35-2.13z" stroke="#fff" stroke-opacity="0" stroke-width=".44" fill="#225798"/><path d="M1856.8 521.7h-.1v-17.16c0-1-.78-1.87-1.77-1.87h-19.03c-1 0-1.76.88-1.76 1.87v17.16h-7.8v-16.5l7.03-7.04c.66-.66.66-1.87 0-2.53-.66-.66-1.87-.66-2.53 0l-7.04 7.04h-17.6l-7.04-7.04c-.66-.66-1.87-.66-2.53 0-.66.66-.66 1.87 0 2.53l7.04 7.04v16.5h-7.8v-3.63c0-1.98-1-3.74-2.76-4.84l-1.3-.77c.2-.77.32-1.43.32-2.2 0-2.86-1.54-5.28-3.85-6.5l-16.6-49.93 38.5-7.37c.65 1.2 1.75 2.1 3.07 2.53v12.2c-2.2.77-3.85 2.86-3.85 5.28v7.26l-6.83 4.62c-.44.33-.77.88-.77 1.43v5.7c0 .12 0 .23.1.45v.1c0 .12.12.12.12.23l1.87 3.85c.32.55.98 1 1.64 1 .22 0 .55-.12.77-.23.9-.44 1.22-1.54.78-2.42l-1-1.98 8.92-2.97 8.9 2.97-.98 1.98c-.44.88-.1 1.98.77 2.42.2.1.54.22.76.22.66 0 1.32-.44 1.65-1l1.88-3.84c0-.1.1-.1.1-.22v-.1c.12-.23.12-.34.12-.45v-5.7c0-.56-.33-1.1-.77-1.44l-6.82-4.62v-7.26c0-2.42-1.64-4.5-3.84-5.28V449c2.2-.78 3.85-2.87 3.85-5.3 0-3.07-2.52-5.6-5.6-5.6-2.86 0-5.17 2.1-5.5 4.84l-39.05 7.48c-1-1.65-2.75-2.86-4.84-2.86-3.07 0-5.6 2.53-5.6 5.6 0 .67.1 1.22.33 1.77l17.38 52.36c-.43.87-.54 1.86-.54 2.96 0 .77.1 1.43.33 2.2l-1.44.77c-1.76 1.1-2.75 2.86-2.75 4.84v3.63h-.1c-1 0-1.76.88-1.76 1.76v13.42h-5.83c-.98 0-1.75.88-1.75 1.87v5.83h-2.1c-.98 0-1.75.77-1.75 1.76 0 1 .77 1.76 1.76 1.76h95.04c7.26 0 13.2-5.94 13.2-13.2 0-7.26-5.94-13.2-13.2-13.2zm-19.14-15.4h5.94v3.96c0 .88.88 1.76 1.76 1.76 1 0 1.87-.88 1.87-1.76v-3.96h5.94v15.4h-15.5v-15.4zm-30.36 0h15.4v15.4h-15.4v-15.4zm-23.1-3.52c-1.43 0-2.75.44-3.85 1.2l-15.07-45.2h.33c1.33 0 2.54-.44 3.53-1.32l15.07 45.32zm-3.52 7.48c0-2.2 1.76-3.96 3.96-3.96 2.1 0 3.85 1.76 3.85 3.96 0 2.1-1.77 3.85-3.86 3.85-2.2 0-3.96-1.75-3.96-3.84zm32.56-34.76v4.95l-7.8 2.53v-2.2l7.8-5.28zm11.33 7.48l-7.8-2.53v-4.95l7.8 5.28v2.2zm-7.6-11.55l-.98-.66v-.1h-.12c-.1 0-.1-.12-.1-.12h-.12c-.1 0-.1 0-.1-.1h-.12-.1H1815h-.1-.12-.1-.12-.1c0 .1 0 .1-.12.1h-.1s0 .1-.12.1h-.1v.12l-1 .66v-4.95c0-1.1.88-1.98 1.98-1.98s1.98.88 1.98 1.98v4.95zm-1.97-29.8c1.1 0 1.98.98 1.98 2.08s-.88 2-1.98 2-1.98-.9-1.98-2 .88-2.08 1.98-2.08zm-49.4 9.56c1.1 0 2 .87 2 1.97s-.9 2.1-2 2.1-2.08-1-2.08-2.1 1-1.98 2.1-1.98zm11.23 66.87c0-.77.44-1.43 1-1.76l1.42-.87c1.43 1.43 3.3 2.3 5.4 2.3 1.97 0 3.84-.87 5.27-2.3l1.43.88c.55.34 1 1 1 1.77v3.63h-15.52v-3.63zm-1.87 7.26h12c-2.54 2.42-4.2 5.83-4.2 9.57 0 .66.12 1.43.23 1.98h-8.04v-11.55zm-7.6 19.25v-4.07h16.73c.65 1.55 1.64 2.87 2.85 4.08h-19.58zm89.44 0h-60.83c-5.28 0-9.57-4.4-9.57-9.68 0-5.28 4.3-9.57 9.57-9.57h60.83c5.28 0 9.68 4.3 9.68 9.57 0 5.28-4.4 9.68-9.68 9.68z" stroke="#000" stroke-opacity="0" stroke-width="3" fill="#c92d39"/><path d="M1795.97 529.3c-3.08 0-5.6 2.52-5.6 5.6 0 3.08 2.52 5.6 5.6 5.6 3.08 0 5.6-2.52 5.6-5.6 0-3.08-2.52-5.6-5.6-5.6zm0 7.58c-1.1 0-1.98-.88-1.98-1.98s.87-1.98 1.97-1.98 2.1.88 2.1 1.98-1 1.98-2.1 1.98zM1811.15 529.3c-3.08 0-5.5 2.52-5.5 5.6 0 3.08 2.42 5.6 5.5 5.6s5.6-2.52 5.6-5.6c0-3.08-2.52-5.6-5.6-5.6zm0 7.58c-1.1 0-1.98-.88-1.98-1.98s.88-1.98 1.98-1.98c1.2 0 2.1.88 2.1 1.98s-.9 1.98-2.1 1.98zM1826.44 529.3c-3.08 0-5.6 2.52-5.6 5.6 0 3.08 2.52 5.6 5.6 5.6 3.08 0 5.5-2.52 5.5-5.6 0-3.08-2.42-5.6-5.5-5.6zm0 7.58c-1.1 0-2.1-.88-2.1-1.98s1-1.98 2.1-1.98 1.98.88 1.98 1.98-.88 1.98-1.98 1.98zM1841.62 529.3c-3.08 0-5.6 2.52-5.6 5.6 0 3.08 2.52 5.6 5.6 5.6 3.08 0 5.6-2.52 5.6-5.6 0-3.08-2.52-5.6-5.6-5.6zm0 7.58c-1.1 0-1.98-.88-1.98-1.98s.88-1.98 1.98-1.98 1.98.88 1.98 1.98-.88 1.98-1.98 1.98zM1856.8 529.3c-3.08 0-5.6 2.52-5.6 5.6 0 3.08 2.52 5.6 5.6 5.6 3.08 0 5.6-2.52 5.6-5.6 0-3.08-2.52-5.6-5.6-5.6zm0 7.58c-1.1 0-1.98-.88-1.98-1.98s.88-1.98 1.98-1.98 1.98.88 1.98 1.98-.88 1.98-1.98 1.98z" stroke="#000" stroke-opacity="0" stroke-width="3" fill="#c92d39"/><defs><path fill="#fff" d="M241-173c-1 82-78 91-166 86L58 0H6l48-248c87 0 188-12 187 75zm-53 2c0-43-48-36-90-36l-15 80c50 0 105 7 105-44" id="q"/><path fill="#fff" d="M114-194c63-2 87 48 72 110H63c-3 28 1 55 31 54 21-1 32-13 37-29l44 13C160-14 137 4 91 4 41 4 11-22 11-73c0-71 33-119 103-121zm30 77c14-47-50-61-67-22-3 6-6 13-8 22h75" id="r"/><path fill="#fff" d="M132-28C118-9 101 4 69 4 30 4 10-23 10-62c0-70 24-129 92-132 31-1 47 14 56 35l19-102h49L179 0h-49zM62-69c0 22 7 39 29 39 45-2 54-45 57-90 2-27-10-40-33-40-44 0-53 48-53 91" id="s"/><path fill="#fff" d="M50-224l7-37h49l-7 37H50zM6 0l37-190h49L55 0H6" id="t"/><path fill="#fff" d="M124-194c51 0 84 22 84 74C207-44 167 4 94 4 43 4 11-23 11-74c0-74 41-120 113-120zM99-30c46 0 58-42 58-86 0-27-11-44-37-44-44 0-55 40-57 84-1 27 10 45 36 46" id="u"/><g id="a"><use transform="matrix(0.06172839506172839,0,0,0.06172839506172839,0,0)" xlink:href="#q"/><use transform="matrix(0.06172839506172839,0,0,0.06172839506172839,14.814814814814813,0)" xlink:href="#r"/><use transform="matrix(0.06172839506172839,0,0,0.06172839506172839,27.160493827160494,0)" xlink:href="#s"/><use transform="matrix(0.06172839506172839,0,0,0.06172839506172839,40.67901234567901,0)" xlink:href="#t"/><use transform="matrix(0.06172839506172839,0,0,0.06172839506172839,46.851851851851855,0)" xlink:href="#s"/><use transform="matrix(0.06172839506172839,0,0,0.06172839506172839,60.370370370370374,0)" xlink:href="#u"/></g><path fill="#333" d="M23 0v-37h61v-169l-59 37v-38l62-41h46v211h57V0H23" id="v"/><use transform="matrix(0.06172839506172839,0,0,0.06172839506172839,0,0)" xlink:href="#v" id="b"/><path fill="#fff" d="M84-151c13-25 34-51 72-40l-8 41C67-170 71-64 56 0H6l36-190h47" id="w"/><path fill="#fff" d="M67-101c-8 29-7 73 27 71 23-2 32-16 39-37l48 9C170-19 141 4 91 4 36 4 7-28 12-86c6-75 61-124 140-103 26 7 40 29 43 59l-50 4c-1-20-9-34-29-34-35 0-41 29-49 59" id="x"/><path fill="#fff" d="M144-137c-1-29-70-35-71-2 16 41 103 10 103 80C176 9 79 16 32-9 18-17 9-31 4-48l44-6c3 32 80 36 82 1-15-42-103-11-103-82 0-77 157-79 161-8" id="y"/><path fill="#fff" d="M166-52c-4 17 5 29 24 23l-3 27c-30 11-74 1-67-34C105-15 91 4 56 4 23 4 3-15 2-49c0-64 63-67 128-67 10-22 3-53-29-45-13 3-22 10-25 24l-46-5c5-64 156-77 153 0-1 33-11 60-17 90zM97-88c-44-9-64 57-19 57 31 0 42-28 47-57H97" id="z"/><g id="c"><use transform="matrix(0.06172839506172839,0,0,0.06172839506172839,0,0)" xlink:href="#q"/><use transform="matrix(0.06172839506172839,0,0,0.06172839506172839,14.814814814814813,0)" xlink:href="#w"/><use transform="matrix(0.06172839506172839,0,0,0.06172839506172839,23.456790123456788,0)" xlink:href="#u"/><use transform="matrix(0.06172839506172839,0,0,0.06172839506172839,36.9753086419753,0)" xlink:href="#x"/><use transform="matrix(0.06172839506172839,0,0,0.06172839506172839,49.32098765432098,0)" xlink:href="#r"/><use transform="matrix(0.06172839506172839,0,0,0.06172839506172839,61.66666666666666,0)" xlink:href="#y"/><use transform="matrix(0.06172839506172839,0,0,0.06172839506172839,74.01234567901234,0)" xlink:href="#z"/><use transform="matrix(0.06172839506172839,0,0,0.06172839506172839,86.35802469135803,0)" xlink:href="#s"/><use transform="matrix(0.06172839506172839,0,0,0.06172839506172839,99.87654320987654,0)" xlink:href="#u"/></g><g id="d"><use transform="matrix(0.06172839506172839,0,0,0.06172839506172839,0,0)" xlink:href="#q"/><use transform="matrix(0.06172839506172839,0,0,0.06172839506172839,14.814814814814813,0)" xlink:href="#r"/><use transform="matrix(0.06172839506172839,0,0,0.06172839506172839,27.160493827160494,0)" xlink:href="#s"/><use transform="matrix(0.06172839506172839,0,0,0.06172839506172839,40.67901234567901,0)" xlink:href="#t"/><use transform="matrix(0.06172839506172839,0,0,0.06172839506172839,46.851851851851855,0)" xlink:href="#s"/><use transform="matrix(0.06172839506172839,0,0,0.06172839506172839,60.370370370370374,0)" xlink:href="#u"/></g><path fill="#333" d="M182-182c0 78-84 86-111 141h115V0H12c-6-101 99-100 120-180 1-22-12-31-33-32-23 0-32 14-35 34l-49-3c5-45 32-70 84-70 51 0 83 22 83 69" id="A"/><use transform="matrix(0.06172839506172839,0,0,0.06172839506172839,0,0)" xlink:href="#A" id="e"/><path fill="#fff" d="M151-194c95 0 34 128 28 194h-49l25-134c0-29-45-25-59-9C67-111 69-48 56 0H6l36-190h47l-4 32c15-20 33-36 66-36" id="B"/><path fill="#fff" d="M255-194c90 0 29 129 24 194h-49l25-136c-7-39-53-14-60 9-12 38-18 85-28 127h-49l25-136c2-29-39-23-50-7C69-108 68-47 56 0H6l36-190h48c-1 10-6 24-4 32 12-20 27-36 57-36s46 15 50 41c14-21 29-41 62-41" id="C"/><path fill="#fff" d="M72-63c-8 23 5 39 32 30L98-1C54 14 12-6 23-64l18-93H15l7-33h28l24-45h31l-8 45h35l-6 33H90" id="D"/><g id="f"><use transform="matrix(0.06172839506172839,0,0,0.06172839506172839,0,0)" xlink:href="#q"/><use transform="matrix(0.06172839506172839,0,0,0.06172839506172839,14.814814814814813,0)" xlink:href="#u"/><use transform="matrix(0.06172839506172839,0,0,0.06172839506172839,28.33333333333333,0)" xlink:href="#y"/><use transform="matrix(0.06172839506172839,0,0,0.06172839506172839,40.679012345679006,0)" xlink:href="#t"/><use transform="matrix(0.06172839506172839,0,0,0.06172839506172839,46.85185185185185,0)" xlink:href="#x"/><use transform="matrix(0.06172839506172839,0,0,0.06172839506172839,59.197530864197525,0)" xlink:href="#t"/><use transform="matrix(0.06172839506172839,0,0,0.06172839506172839,65.37037037037037,0)" xlink:href="#u"/><use transform="matrix(0.06172839506172839,0,0,0.06172839506172839,78.88888888888889,0)" xlink:href="#B"/><use transform="matrix(0.06172839506172839,0,0,0.06172839506172839,92.4074074074074,0)" xlink:href="#z"/><use transform="matrix(0.06172839506172839,0,0,0.06172839506172839,104.75308641975309,0)" xlink:href="#C"/><use transform="matrix(0.06172839506172839,0,0,0.06172839506172839,124.50617283950618,0)" xlink:href="#t"/><use transform="matrix(0.06172839506172839,0,0,0.06172839506172839,130.679012345679,0)" xlink:href="#r"/><use transform="matrix(0.06172839506172839,0,0,0.06172839506172839,143.02469135802468,0)" xlink:href="#B"/><use transform="matrix(0.06172839506172839,0,0,0.06172839506172839,156.5432098765432,0)" xlink:href="#D"/><use transform="matrix(0.06172839506172839,0,0,0.06172839506172839,163.88888888888886,0)" xlink:href="#u"/></g><path fill="#333" d="M128-127c34 4 56 21 59 58 7 91-148 94-172 28-4-9-6-17-7-26l51-5c1 24 16 35 40 36 23 0 39-12 38-36-1-31-31-36-65-34v-40c32 2 59-3 59-33 0-20-13-33-34-33s-33 13-35 32l-50-3c6-44 37-68 86-68 50 0 83 20 83 66 0 35-22 52-53 58" id="E"/><use transform="matrix(0.06172839506172839,0,0,0.06172839506172839,0,0)" xlink:href="#E" id="g"/><path fill="#fff" d="M98-208l-15 77h118l-8 40H76L58 0H6l48-248h174l-8 40H98" id="F"/><path fill="#fff" d="M45-171c29-32 103-29 114 14 2-11 5-23 8-33h47L176-2c-3 70-92 96-155 64C9 56 1 42-1 25l50-5c2 28 48 27 63 11 13-13 20-45 21-66-13 20-30 35-62 36-87 3-60-134-26-172zM94-35c41-3 55-43 55-86 0-24-12-39-35-39-43 0-51 48-51 90 0 22 9 37 31 35" id="G"/><path fill="#fff" d="M93-157L62 0H13l31-157H16l6-33h28c2-54 40-81 100-68l-6 32c-29-8-44 9-45 36h38l-7 33H93" id="H"/><path fill="#fff" d="M6 0l37-190h49L55 0H6zm40-208c10-23 30-36 44-56h49l-1 8-67 48H46" id="I"/><g id="h"><use transform="matrix(0.06172839506172839,0,0,0.06172839506172839,0,0)" xlink:href="#F"/><use transform="matrix(0.06172839506172839,0,0,0.06172839506172839,13.518518518518517,0)" xlink:href="#u"/><use transform="matrix(0.06172839506172839,0,0,0.06172839506172839,27.037037037037035,0)" xlink:href="#D"/><use transform="matrix(0.06172839506172839,0,0,0.06172839506172839,34.382716049382715,0)" xlink:href="#u"/><use transform="matrix(0.06172839506172839,0,0,0.06172839506172839,47.901234567901234,0)" xlink:href="#G"/><use transform="matrix(0.06172839506172839,0,0,0.06172839506172839,61.41975308641975,0)" xlink:href="#w"/><use transform="matrix(0.06172839506172839,0,0,0.06172839506172839,70.06172839506172,0)" xlink:href="#z"/><use transform="matrix(0.06172839506172839,0,0,0.06172839506172839,82.4074074074074,0)" xlink:href="#H"/><use transform="matrix(0.06172839506172839,0,0,0.06172839506172839,89.75308641975309,0)" xlink:href="#I"/><use transform="matrix(0.06172839506172839,0,0,0.06172839506172839,95.92592592592592,0)" xlink:href="#z"/></g><path fill="#333" d="M165-50V0h-47v-50H5v-38l105-160h55v161h33v37h-33zm-47-37l2-116L46-87h72" id="J"/><use transform="matrix(0.06172839506172839,0,0,0.06172839506172839,0,0)" xlink:href="#J" id="i"/><path fill="#fff" d="M183 0l-10-63H79L44 0H-7l138-248h61L234 0h-51zm-14-102l-15-108c-16 38-36 73-55 108h70" id="K"/><path fill="#fff" d="M166-52c-4 17 5 29 24 23l-3 27c-30 11-74 1-67-34C105-15 91 4 56 4 23 4 3-15 2-49c0-64 63-67 128-67 10-22 3-53-29-45-13 3-22 10-25 24l-46-5c5-64 156-77 153 0-1 33-11 60-17 90zM97-88c-44-9-64 57-19 57 31 0 42-28 47-57H97zm-2-120c10-23 30-36 44-56h49l-1 8-67 48H95" id="L"/><path fill="#fff" d="M6 0l51-261h49L55 0H6" id="M"/><g id="j"><use transform="matrix(0.06172839506172839,0,0,0.06172839506172839,0,0)" xlink:href="#K"/><use transform="matrix(0.06172839506172839,0,0,0.06172839506172839,15.987654320987653,0)" xlink:href="#B"/><use transform="matrix(0.06172839506172839,0,0,0.06172839506172839,29.50617283950617,0)" xlink:href="#L"/><use transform="matrix(0.06172839506172839,0,0,0.06172839506172839,41.85185185185185,0)" xlink:href="#M"/><use transform="matrix(0.06172839506172839,0,0,0.06172839506172839,48.02469135802469,0)" xlink:href="#t"/><use transform="matrix(0.06172839506172839,0,0,0.06172839506172839,54.19753086419753,0)" xlink:href="#y"/><use transform="matrix(0.06172839506172839,0,0,0.06172839506172839,66.54320987654322,0)" xlink:href="#t"/><use transform="matrix(0.06172839506172839,0,0,0.06172839506172839,72.71604938271605,0)" xlink:href="#y"/></g><path fill="#333" d="M139-81c0-46-55-55-73-27H18l9-140h149v37H72l-4 63c44-38 133-4 122 66C201 21 21 35 11-62l49-4c5 18 15 30 39 30 26 0 40-18 40-45" id="N"/><use transform="matrix(0.06172839506172839,0,0,0.06172839506172839,0,0)" xlink:href="#N" id="k"/><path fill="#fff" d="M161-211c-63 0-91 46-91 110 0 39 17 65 58 64 38-1 60-20 74-45l40 20C220-23 184 0 125 4 9 13-10-144 57-208c33-50 166-62 196-1 4 8 9 18 11 27l-48 12c-6-24-25-41-55-41" id="O"/><path fill="#fff" d="M156-122c2-23-7-37-28-37-47 0-58 44-58 89 0 24 12 40 36 40 43 0 47-49 50-92zM-8 75l50-265h48c0 10-3 24-3 30 22-50 127-45 121 29-6 73-21 135-92 135-29 0-46-14-55-35L41 75H-8" id="P"/><path fill="#fff" d="M69 3c-96 0-34-126-28-193h49L65-57c6 42 62 18 71-6 14-38 17-86 28-127h50L178 0h-47c0-11 4-26 3-33-14 20-30 37-65 36" id="Q"/><g id="l"><use transform="matrix(0.06172839506172839,0,0,0.06172839506172839,0,0)" xlink:href="#O"/><use transform="matrix(0.06172839506172839,0,0,0.06172839506172839,15.987654320987653,0)" xlink:href="#z"/><use transform="matrix(0.06172839506172839,0,0,0.06172839506172839,28.333333333333332,0)" xlink:href="#P"/><use transform="matrix(0.06172839506172839,0,0,0.06172839506172839,41.85185185185185,0)" xlink:href="#D"/><use transform="matrix(0.06172839506172839,0,0,0.06172839506172839,49.197530864197525,0)" xlink:href="#Q"/><use transform="matrix(0.06172839506172839,0,0,0.06172839506172839,62.716049382716044,0)" xlink:href="#w"/><use transform="matrix(0.06172839506172839,0,0,0.06172839506172839,71.35802469135803,0)" xlink:href="#z"/></g><path fill="#333" d="M115-159c48 0 72 30 72 78 0 54-30 85-83 85-64 0-91-50-91-122 0-98 58-163 141-120 15 8 21 24 27 44l-47 6c-5-31-48-31-61-4-7 14-11 33-11 60 9-17 28-27 53-27zM102-35c24 0 36-20 36-45s-11-43-37-43c-23 0-36 14-36 38 0 27 11 50 37 50" id="R"/><use transform="matrix(0.06172839506172839,0,0,0.06172839506172839,0,0)" xlink:href="#R" id="m"/><path fill="#fff" d="M6 0l48-248h195l-8 40H98l-12 63h132l-7 40H79L66-40h150l-8 40H6" id="S"/><g id="n"><use transform="matrix(0.06172839506172839,0,0,0.06172839506172839,0,0)" xlink:href="#S"/><use transform="matrix(0.06172839506172839,0,0,0.06172839506172839,14.814814814814813,0)" xlink:href="#B"/><use transform="matrix(0.06172839506172839,0,0,0.06172839506172839,28.33333333333333,0)" xlink:href="#D"/><use transform="matrix(0.06172839506172839,0,0,0.06172839506172839,35.679012345679006,0)" xlink:href="#w"/><use transform="matrix(0.06172839506172839,0,0,0.06172839506172839,44.32098765432098,0)" xlink:href="#r"/><use transform="matrix(0.06172839506172839,0,0,0.06172839506172839,56.66666666666666,0)" xlink:href="#G"/><use transform="matrix(0.06172839506172839,0,0,0.06172839506172839,70.18518518518518,0)" xlink:href="#z"/></g><g id="o"><use transform="matrix(0.06172839506172839,0,0,0.06172839506172839,0,0)" xlink:href="#P"/><use transform="matrix(0.06172839506172839,0,0,0.06172839506172839,13.518518518518517,0)" xlink:href="#r"/><use transform="matrix(0.06172839506172839,0,0,0.06172839506172839,25.864197530864196,0)" xlink:href="#s"/><use transform="matrix(0.06172839506172839,0,0,0.06172839506172839,39.382716049382715,0)" xlink:href="#t"/><use transform="matrix(0.06172839506172839,0,0,0.06172839506172839,45.55555555555556,0)" xlink:href="#s"/><use transform="matrix(0.06172839506172839,0,0,0.06172839506172839,59.074074074074076,0)" xlink:href="#u"/></g><path fill="#333" d="M52 0c1-96 47-148 87-207H15v-41h169v40c-36 62-79 113-81 208H52" id="T"/><use transform="matrix(0.06172839506172839,0,0,0.06172839506172839,0,0)" xlink:href="#T" id="p"/></defs></g></svg>